<svg xmlns="http://www.w3.org/2000/svg" fill="none" viewBox="0 0 48 48" height="48" width="48"><g id="ball--sports-ball-sport-basketball-shopping-catergories"><g id="Subtract"><path fill="#000" d="M21.496 1.637a22.408 22.408 0 0 0 -12.31 5.427l7.622 7.623a19.424 19.424 0 0 0 4.688 -13.05Z" stroke-width="1"></path><path fill="#000" d="M18.935 16.814a22.413 22.413 0 0 0 5.56 -15.31 22.41 22.41 0 0 1 14.319 5.56L24 21.878l-5.065 -5.064Z" stroke-width="1"></path><path fill="#000" d="M14.687 16.808a19.424 19.424 0 0 1 -13.05 4.688 22.408 22.408 0 0 1 5.427 -12.31l7.623 7.622Z" stroke-width="1"></path><path fill="#000" d="M16.814 18.935 21.878 24 7.064 38.814a22.41 22.41 0 0 1 -5.56 -14.32 22.413 22.413 0 0 0 15.309 -5.56Z" stroke-width="1"></path><path fill="#000" d="M40.935 9.185a22.41 22.41 0 0 1 5.56 14.32 22.413 22.413 0 0 0 -15.309 5.56L26.12 24 40.935 9.185Z" stroke-width="1"></path><path fill="#000" d="m24 26.12 5.064 5.066a22.413 22.413 0 0 0 -5.56 15.308 22.41 22.41 0 0 1 -14.319 -5.56L24 26.122Z" stroke-width="1"></path><path fill="#000" d="m38.814 40.935 -7.623 -7.623a19.424 19.424 0 0 0 -4.688 13.05 22.409 22.409 0 0 0 12.31 -5.427Z" stroke-width="1"></path><path fill="#000" d="m33.312 31.19 7.623 7.624a22.409 22.409 0 0 0 5.427 -12.311 19.423 19.423 0 0 0 -13.05 4.688Z" stroke-width="1"></path></g></g></svg>