<svg xmlns="http://www.w3.org/2000/svg" fill="none" viewBox="0 0 14 14" height="14" width="14"><g id="bicycle-bike"><path id="Union" fill="#000" fill-rule="evenodd" d="M7.985 4.146a0.625 0.625 0 0 1 0.515 -0.271H11a0.625 0.625 0 1 1 0 1.25H9.41l1.166 3.031a2.876 2.876 0 1 1 -2.2 1.669l-0.885 1.062a0.622 0.622 0 0 1 -0.429 0.235l-1.2 0.15A2.875 2.875 0 1 1 3.694 8.21l0.547 -1.094 -0.595 -0.991H3a0.625 0.625 0 1 1 0 -1.25h0.989l0.021 0H5.5a0.625 0.625 0 1 1 0 1.25h-0.396l0.38 0.635 0.009 0.013 1.59 2.65L8.89 7.257l-0.973 -2.532a0.625 0.625 0 0 1 0.068 -0.578Zm2.432 7.078 -0.539 -1.4a1.625 1.625 0 1 0 1.167 -0.448l0.538 1.4a0.625 0.625 0 0 1 -1.166 0.448ZM9.404 8.591l0.005 0.014a2.873 2.873 0 0 0 -0.038 0.026l0.033 -0.04Zm-4.4 -0.204 -0.44 0.88 -0.483 0.968 1.074 -0.134 0.815 -0.102 -0.967 -1.612Zm-0.438 3.047 -1.488 0.186a0.625 0.625 0 0 1 -0.637 -0.9l0.67 -1.341A1.623 1.623 0 0 0 1.375 11a1.625 1.625 0 0 0 3.19 0.434Z" clip-rule="evenodd" stroke-width="1"></path></g></svg>