<svg xmlns="http://www.w3.org/2000/svg" fill="none" viewBox="0 0 14 14" height="14" width="14"><g id="brain-cognitive--health-medical-brain-cognitive-specialities"><path id="Subtract" fill="#000" fill-rule="evenodd" d="M6.883 0.002A6 6 0 0 1 13 6v4a1.5 1.5 0 0 1 -1.5 1.5H10v2a0.5 0.5 0 0 1 -0.5 0.5h-5a0.5 0.5 0 0 1 -0.5 -0.5v-2.303A6 6 0 0 1 6.883 0.002ZM3.56 7.21a3.768 3.768 0 0 1 6.373 -3.757c0.294 0.334 0.225 0.832 -0.105 1.13C8.582 5.71 6.53 7.154 4.515 7.688c-0.398 0.106 -0.817 -0.09 -0.955 -0.477Z" clip-rule="evenodd" stroke-width="1"></path></g></svg>