<svg xmlns="http://www.w3.org/2000/svg" fill="none" viewBox="0 0 14 14" height="14" width="14"><g id="campfire--campfire-burn-leisure-outdoor-activity"><path id="Union" fill="#000000" fill-rule="evenodd" d="M2.82 3.622a3.348 3.348 0 0 0 -0.327 1.529c0.16 4.69 8.853 4.69 9.014 0a3.348 3.348 0 0 0 -0.327 -1.529 2.899 2.899 0 0 0 -0.477 -0.704c-0.217 -0.235 -0.58 -0.116 -0.734 0.165a4.028 4.028 0 0 1 -0.7 0.938S8.533 0.25 6.999 0.25c-1.532 0 -2.268 3.77 -2.268 3.77a4.028 4.028 0 0 1 -0.7 -0.937c-0.154 -0.282 -0.517 -0.4 -0.734 -0.165 -0.188 0.204 -0.35 0.44 -0.478 0.704Zm-1.6 6.196a0.75 0.75 0 0 1 0.834 -0.656c1.706 0.203 3.309 0.56 4.851 1.058a25.512 25.512 0 0 1 4.852 -1.058 0.75 0.75 0 1 1 0.177 1.489c-0.911 0.108 -1.793 0.264 -2.651 0.464 0.99 0.426 1.961 0.91 2.927 1.449a0.75 0.75 0 1 1 -0.73 1.31A28.313 28.313 0 0 0 6.906 11.8a28.435 28.435 0 0 0 -4.575 2.073 0.75 0.75 0 0 1 -0.73 -1.31 31.89 31.89 0 0 1 2.927 -1.449 24.2 24.2 0 0 0 -2.65 -0.464 0.75 0.75 0 0 1 -0.657 -0.833Z" clip-rule="evenodd" stroke-width="1"></path></g></svg>