<svg xmlns="http://www.w3.org/2000/svg" fill="none" viewBox="0 0 14 14" height="14" width="14"><g id="coffee-mug--coffee-cook-cup-drink-mug-cooking-nutrition-cafe-caffeine-food"><path id="Union" fill="#000" fill-rule="evenodd" d="M4 0.023a0.75 0.75 0 0 1 0.75 0.75v2a0.75 0.75 0 1 1 -1.5 0v-2A0.75 0.75 0 0 1 4 0.023ZM1.94 5.439A1.5 1.5 0 0 1 3 5h5a1.5 1.5 0 0 1 1.429 1.044H9.5a3.25 3.25 0 1 1 0 6.5h-0.228A2.5 2.5 0 0 1 7 14H4a2.5 2.5 0 0 1 -2.5 -2.5v-5c0 -0.398 0.158 -0.78 0.44 -1.06Zm7.56 5.605a1.75 1.75 0 1 0 0 -3.5v3.5ZM7.75 0.773a0.75 0.75 0 0 0 -1.5 0v2a0.75 0.75 0 1 0 1.5 0v-2Z" clip-rule="evenodd" stroke-width="1"></path></g></svg>