<svg xmlns="http://www.w3.org/2000/svg" fill="none" viewBox="0 0 14 14" height="14" width="14"><g id="curly-brackets"><path id="Union" fill="#000" fill-rule="evenodd" d="M5.591 0.375a1.75 1.75 0 0 0 -1.75 1.75v2.77c0 0.426 -0.217 0.822 -0.575 1.052l-0.804 0.515a0.75 0.75 0 0 0 0 1.263l0.804 0.515c0.358 0.23 0.575 0.627 0.575 1.053v2.77c0 0.966 0.784 1.75 1.75 1.75h0.386a0.75 0.75 0 0 0 0 -1.5H5.59a0.25 0.25 0 0 1 -0.25 -0.25v-2.77a2.75 2.75 0 0 0 -1.099 -2.2A2.75 2.75 0 0 0 5.34 4.895v-2.77a0.25 0.25 0 0 1 0.25 -0.25h0.386a0.75 0.75 0 1 0 0 -1.5H5.59Zm3.16 0c0.967 0 1.75 0.784 1.75 1.75v2.77c0 0.426 0.218 0.822 0.576 1.052l0.804 0.515a0.75 0.75 0 0 1 0 1.263l-0.804 0.515a1.25 1.25 0 0 0 -0.575 1.053v2.77a1.75 1.75 0 0 1 -1.75 1.75h-0.386a0.75 0.75 0 0 1 0 -1.5h0.386a0.25 0.25 0 0 0 0.25 -0.25v-2.77c0 -0.87 0.41 -1.682 1.098 -2.2a2.75 2.75 0 0 1 -1.098 -2.198v-2.77a0.25 0.25 0 0 0 -0.25 -0.25h-0.386a0.75 0.75 0 0 1 0 -1.5h0.386Z" clip-rule="evenodd" stroke-width="1"></path></g></svg>