<svg xmlns="http://www.w3.org/2000/svg" fill="none" viewBox="0 0 48 48" height="48" width="48"><g id="dumbell--sports-weights-dumbbell-sport-fitness-hotel"><path id="Union" fill="#000" fill-rule="evenodd" d="M10.624 10.107C11.135 9.8 11.922 9.5 13 9.5c1.078 0 1.865 0.3 2.376 0.607 0.789 0.472 1.025 1.28 1.037 1.856 0.023 1.148 0.087 4.934 0.087 12.037 0 7.103 -0.064 10.889 -0.087 12.037 -0.012 0.575 -0.248 1.384 -1.037 1.856 -0.511 0.307 -1.298 0.607 -2.376 0.607 -1.078 0 -1.865 -0.3 -2.376 -0.607 -0.789 -0.472 -1.025 -1.28 -1.037 -1.856C9.564 34.89 9.5 31.103 9.5 24c0 -7.103 0.064 -10.889 0.087 -12.037 0.012 -0.575 0.248 -1.384 1.037 -1.856Zm26.752 0C36.865 9.8 36.078 9.5 35 9.5c-1.078 0 -1.865 0.3 -2.376 0.607 -0.789 0.472 -1.025 1.28 -1.037 1.856C31.564 13.11 31.5 16.897 31.5 24c0 7.103 0.064 10.889 0.087 12.037 0.012 0.575 0.248 1.384 1.037 1.856 0.511 0.307 1.298 0.607 2.376 0.607 1.078 0 1.865 -0.3 2.376 -0.607 0.788 -0.472 1.025 -1.28 1.037 -1.856 0.023 -1.148 0.087 -4.934 0.087 -12.037 0 -7.103 -0.064 -10.889 -0.087 -12.037 -0.012 -0.575 -0.248 -1.384 -1.037 -1.856ZM4.5 14.5c-0.66 0 -1.189 0.12 -1.594 0.277 -1.016 0.394 -1.33 1.356 -1.345 2 -0.02 0.897 -0.061 3.197 -0.061 7.223s0.04 6.326 0.06 7.223c0.015 0.644 0.33 1.607 1.346 2 0.405 0.157 0.934 0.277 1.594 0.277s1.189 -0.12 1.594 -0.277c1.016 -0.393 1.33 -1.356 1.345 -2 0.02 -0.897 0.061 -3.197 0.061 -7.223s-0.04 -6.326 -0.06 -7.223c-0.015 -0.644 -0.33 -1.607 -1.346 -2A4.392 4.392 0 0 0 4.5 14.5Zm40.594 0.277A4.392 4.392 0 0 0 43.5 14.5c-0.66 0 -1.189 0.12 -1.594 0.277 -1.015 0.394 -1.33 1.356 -1.345 2 -0.02 0.897 -0.061 3.197 -0.061 7.223s0.04 6.326 0.06 7.223c0.015 0.644 0.33 1.607 1.346 2 0.405 0.157 0.934 0.277 1.594 0.277s1.189 -0.12 1.594 -0.277c1.015 -0.393 1.33 -1.356 1.345 -2 0.02 -0.897 0.061 -3.197 0.061 -7.223s-0.04 -6.326 -0.06 -7.223c-0.015 -0.644 -0.33 -1.607 -1.346 -2ZM18.5 26.857v-5.714c0 -0.948 0.776 -1.446 1.603 -1.517 0.172 -0.015 0.425 -0.034 0.765 -0.052 0.68 -0.038 1.707 -0.074 3.132 -0.074s2.453 0.036 3.132 0.074c0.34 0.018 0.593 0.037 0.765 0.052 0.827 0.07 1.603 0.569 1.603 1.517v5.714c0 0.949 -0.776 1.446 -1.603 1.517 -0.172 0.015 -0.425 0.034 -0.765 0.052 -0.68 0.038 -1.707 0.074 -3.132 0.074s-2.453 -0.036 -3.132 -0.074c-0.34 -0.018 -0.593 -0.037 -0.765 -0.052 -0.827 -0.07 -1.603 -0.569 -1.603 -1.517Z" clip-rule="evenodd" stroke-width="1"></path></g></svg>