<svg xmlns="http://www.w3.org/2000/svg" fill="none" viewBox="0 0 14 14" height="14" width="14"><g id="incognito-mode--internet-safe-mode-browser"><path id="Union" fill="#000" fill-rule="evenodd" d="M2.544 1.218A1.457 1.457 0 0 1 3.982 0h6.036c0.712 0 1.32 0.515 1.438 1.218l0.712 4.276h1.054a0.75 0.75 0 0 1 0 1.5H0.778a0.75 0.75 0 0 1 0 -1.5h1.054l0.712 -4.276Zm6.206 9.681a1.5 1.5 0 1 1 3.001 0 1.5 1.5 0 0 1 -3.001 0Zm1.5 -3a2.998 2.998 0 0 0 -2.53 1.387A1.866 1.866 0 0 0 7 9.149c-0.264 0 -0.505 0.046 -0.72 0.136a3 3 0 1 0 0.47 1.615l0 -0.002a0.524 0.524 0 0 1 0.044 -0.163 0.134 0.134 0 0 1 0.042 -0.056c0.006 -0.003 0.045 -0.03 0.163 -0.03 0.117 0 0.157 0.027 0.162 0.03 0.009 0.006 0.024 0.02 0.042 0.056a0.482 0.482 0 0 1 0.046 0.175l0 0.002 0.001 0.03a3 3 0 1 0 3 -3.043Zm-6.501 1.5a1.5 1.5 0 0 1 1.5 1.463l0 0.001 0 0.021 0 0.009 0 0.003 0 0.002v0.002l0 0.034a1.5 1.5 0 1 1 -1.5 -1.535Z" clip-rule="evenodd" stroke-width="1"></path></g></svg>