<svg xmlns="http://www.w3.org/2000/svg" fill="none" viewBox="0 0 14 14" height="14" width="14"><g id="snorkle--diving-scuba-outdoor-recreation-ocean-mask-water-sea-snorkle-travel-places"><path id="Union" fill="#000" fill-rule="evenodd" d="M13.188 0.062a0.75 0.75 0 0 1 0.75 0.75v9.52a3.606 3.606 0 0 1 -3.606 3.606H8.428a3.606 3.606 0 0 1 -3.606 -3.606 0.75 0.75 0 1 1 1.5 0 2.106 2.106 0 0 0 2.106 2.106h1.904a2.106 2.106 0 0 0 2.106 -2.106V0.812a0.75 0.75 0 0 1 0.75 -0.75ZM1.016 2.838a2.404 2.404 0 0 1 1.7 -0.704h5.712a2.404 2.404 0 0 1 2.404 2.404v1.904a2.404 2.404 0 0 1 -2.404 2.404h-0.952a0.5 0.5 0 0 1 -0.416 -0.222L5.947 6.958a0.452 0.452 0 0 0 -0.75 0L4.084 8.624a0.5 0.5 0 0 1 -0.416 0.222h-0.952A2.404 2.404 0 0 1 0.312 6.442V4.538c0 -0.638 0.253 -1.25 0.704 -1.7Z" clip-rule="evenodd" stroke-width="1"></path></g></svg>