<svg xmlns="http://www.w3.org/2000/svg" fill="none" viewBox="0 0 14 14" height="14" width="14"><g id="water-glass--glass-water-juice-drink-liquid"><path id="Union" fill="#000" fill-rule="evenodd" d="M1.175 0.277a0.75 0.75 0 0 1 0.56 -0.25h10.53a0.75 0.75 0 0 1 0.746 0.836l-0.545 4.71 0 0.003 -0.7 6.039a2.665 2.665 0 0 1 -2.662 2.358H4.877a2.665 2.665 0 0 1 -2.662 -2.358l0 -0.002 -0.689 -6.038L0.99 0.862a0.75 0.75 0 0 1 0.186 -0.585Zm10.249 1.25 -0.372 3.213H2.941l-0.366 -3.213h8.849Z" clip-rule="evenodd" stroke-width="1"></path></g></svg>