<svg xmlns="http://www.w3.org/2000/svg" fill="none" viewBox="0 0 14 14" height="14" width="14"><g id="workspace-desk--workspace-desk-work"><path id="Union" fill="#000" fill-rule="evenodd" d="m3.784 1.505 6.432 0c0.019 0 0.034 0.015 0.034 0.034V5.47a0.034 0.034 0 0 1 -0.034 0.034l-6.432 0a0.034 0.034 0 0 1 -0.034 -0.034V1.539c0 -0.02 0.015 -0.034 0.034 -0.034Zm6.432 -1.5 -6.432 0C2.937 0.005 2.25 0.69 2.25 1.539V5.47c0 0.847 0.687 1.534 1.534 1.534l2.465 0 0 1.016H2.202A1.859 1.859 0 0 0 0.344 9.879v3.367a0.75 0.75 0 0 0 1.5 0v-2.518h10.312v2.518a0.75 0.75 0 0 0 1.5 0V9.878a1.859 1.859 0 0 0 -1.858 -1.858h-4.05l0 -1.016 2.468 0c0.847 0 1.534 -0.687 1.534 -1.534V1.539c0 -0.848 -0.687 -1.534 -1.534 -1.534Z" clip-rule="evenodd" stroke-width="1"></path></g></svg>