<?xml version="1.0" encoding="utf-8"?>

<!DOCTYPE svg PUBLIC "-//W3C//DTD SVG 1.1//EN" "http://www.w3.org/Graphics/SVG/1.1/DTD/svg11.dtd">
<!-- Uploaded to: SVG Repo, www.svgrepo.com, Generator: SVG Repo Mixer Tools -->
<svg height="800px" width="800px" version="1.1" id="_x32_" xmlns="http://www.w3.org/2000/svg" xmlns:xlink="http://www.w3.org/1999/xlink" 
	 viewBox="0 0 512 512"  xml:space="preserve">
<style type="text/css">
	.st0{fill:#000000;}
</style>
<g>
	<path class="st0" d="M99.407,262.803C44.587,262.803,0,307.408,0,362.228c0,54.802,44.587,99.389,99.407,99.389
		c54.811,0,99.398-44.587,99.398-99.389C198.805,307.408,154.218,262.803,99.407,262.803z M99.407,434.385
		c-39.802,0-72.166-32.374-72.166-72.158c0-39.81,32.365-72.175,72.166-72.175c39.792,0,72.166,32.366,72.166,72.175
		C171.572,402.011,139.199,434.385,99.407,434.385z"/>
	<path class="st0" d="M412.593,262.803c-54.811,0-99.398,44.605-99.398,99.425c0,54.802,44.587,99.389,99.398,99.389
		c54.82,0,99.407-44.587,99.407-99.389C512,307.408,467.413,262.803,412.593,262.803z M412.593,434.385
		c-39.792,0-72.166-32.374-72.166-72.158c0-39.81,32.374-72.175,72.166-72.175c39.801,0,72.175,32.366,72.175,72.175
		C484.768,402.011,452.394,434.385,412.593,434.385z"/>
	<path class="st0" d="M259.974,87.313L119.95,109.099c-25.642,5.837-24.357,16.565-21.134,33.46l15.566,56.47l-54.472,0.461
		l0.009,0.13c-6.958,0.869-12.352,6.793-12.352,13.976c0,7.801,6.324,14.107,14.107,14.107l74.199,7.461
		c13.994,0.608,18.676-12.178,18.388-22.732l-3.075-35.745l51.996-14.628c0,0-25.242,29.959-27.336,32.574
		c-10.458,13.073-14.246,37.038,2.615,49.686l72.991,52.996l4.152,63.55c0,10.519,8.53,19.049,19.049,19.049
		c10.51,0,19.04-8.53,19.04-19.049c0-0.417,16.765-203.574,16.765-203.574C315.306,114.935,290.941,82.44,259.974,87.313z
		 M221.511,228.328c-3.631-2.719-2.736-6.35,0-9.981c2.71-3.64,24.496-21.794,24.496-21.794l4.551,57.191L221.511,228.328z"/>
	<path class="st0" d="M24.947,98.718h37.221v44.152h5.612V98.718h18.71c0,0,19.64-9.92,28.274-19.831
		c2.415-2.78,3.84-9.347-4.274-7.653c0,0,4.483-10.476,5.933-14.524c1.451-4.065,0.295-7.783-7.8-5.758
		c-4.152,1.042-25.686,5.159-56.132,11.83C24.738,68.872,17.46,90.605,17.46,94.209C17.46,97.815,18.806,98.718,24.947,98.718z"/>
	<polygon class="st0" points="21.003,115.839 29.108,123.265 52.804,116.517 52.804,105.033 21.003,105.033 	"/>
</g>
</svg>